<?xml version="1.0" standalone="no"?>
<!DOCTYPE svg PUBLIC "-//W3C//DTD SVG 20010904//EN"
 "http://www.w3.org/TR/2001/REC-SVG-20010904/DTD/svg10.dtd">
<svg version="1.0" xmlns="http://www.w3.org/2000/svg"
 width="400.000000pt" height="400.000000pt" viewBox="0 0 400.000000 400.000000"
 preserveAspectRatio="xMidYMid meet">

<g transform="translate(0.000000,400.000000) scale(0.100000,-0.100000)"
fill="#000000" stroke="none">
<path d="M1845 3803 c-99 -12 -307 -58 -403 -88 -325 -103 -564 -242 -790
-460 -236 -227 -389 -473 -490 -785 -59 -181 -102 -439 -102 -607 l0 -43 60 0
c47 0 64 -4 80 -20 41 -41 112 -13 112 45 0 57 -73 87 -109 45 -11 -12 -30
-20 -50 -20 l-33 0 0 78 c0 42 7 122 15 177 116 811 682 1409 1505 1589 255
55 465 59 710 11 689 -135 1215 -567 1455 -1196 61 -160 125 -463 125 -595 0
-33 -1 -34 -40 -34 -27 0 -47 7 -60 20 -58 58 -142 -20 -94 -88 20 -29 74 -30
99 -2 14 16 31 20 82 20 l63 0 0 68 c0 221 -78 542 -189 777 -125 263 -328
519 -549 688 -346 267 -820 430 -1233 426 -74 -1 -147 -4 -164 -6z"/>
<path d="M1832 3509 c-640 -75 -1192 -525 -1392 -1137 -63 -194 -74 -275 -74
-517 0 -191 3 -234 22 -324 50 -229 150 -460 275 -638 93 -132 289 -324 421
-412 312 -208 646 -303 1006 -288 619 26 1166 387 1434 947 111 232 159 451
159 715 -1 276 -51 492 -172 740 -305 621 -990 994 -1679 914z m542 -73 c144
-34 241 -68 373 -134 444 -223 767 -646 864 -1129 27 -137 36 -375 19 -510
-46 -373 -197 -681 -464 -949 -318 -318 -693 -475 -1136 -476 -280 -1 -495 49
-743 173 -788 396 -1111 1373 -715 2164 231 461 661 783 1167 875 87 16 142
19 311 16 181 -2 219 -6 324 -30z"/>
<path d="M1830 3390 c-247 -34 -477 -123 -683 -262 -125 -85 -325 -285 -406
-407 -112 -169 -192 -360 -237 -571 -15 -68 -19 -128 -19 -295 0 -237 9 -299
75 -496 79 -238 183 -403 374 -595 228 -228 460 -354 783 -426 83 -19 129 -22
303 -22 231 0 322 14 511 80 797 277 1224 1146 957 1948 -174 524 -618 915
-1167 1027 -110 23 -386 33 -491 19z m445 -70 c691 -118 1201 -697 1232 -1400
30 -663 -383 -1266 -1009 -1474 -184 -62 -249 -71 -483 -71 -191 1 -220 3
-321 27 -284 67 -534 207 -735 411 -207 212 -354 498 -404 792 -24 134 -24
366 0 500 109 630 608 1121 1240 1220 128 21 345 18 480 -5z"/>
<path d="M1905 3323 c-653 -56 -1186 -528 -1327 -1176 -32 -147 -32 -437 0
-584 90 -417 352 -779 709 -983 493 -283 1105 -258 1571 62 102 71 269 232
348 338 127 169 232 418 269 635 22 132 22 349 0 480 -99 583 -548 1061 -1120
1193 -151 35 -309 47 -450 35z m-21 -155 c12 -71 26 -191 26 -219 0 -27 -3
-30 -27 -27 -27 3 -28 5 -40 103 -7 55 -14 114 -17 132 -3 24 0 33 12 36 35 9
41 6 46 -25z m300 -111 c26 -76 46 -141 43 -144 -15 -14 -56 9 -65 37 -9 24
-17 30 -40 30 -16 0 -43 3 -59 6 -26 5 -31 2 -43 -25 -10 -26 -18 -31 -46 -31
l-34 0 68 135 c65 132 68 136 97 133 29 -3 32 -8 79 -141z m-469 87 c38 -15
60 -109 30 -134 -22 -18 -20 -23 31 -60 l45 -35 -33 -11 c-31 -11 -36 -9 -76
23 -30 25 -48 33 -63 28 -18 -6 -20 -12 -14 -43 4 -21 7 -41 8 -46 1 -5 -10
-12 -24 -16 -26 -8 -27 -7 -69 122 -23 71 -40 132 -38 134 3 2 31 12 64 23 62
20 111 25 139 15z m774 -22 c19 -10 41 -28 48 -39 12 -17 10 -21 -11 -33 -22
-11 -28 -10 -56 14 -41 34 -74 33 -111 -3 -60 -61 -21 -151 65 -151 14 0 26 2
26 4 0 2 3 11 6 20 4 10 -4 19 -24 28 -25 11 -29 16 -21 35 8 22 9 22 56 6 26
-9 51 -19 56 -22 4 -4 -1 -32 -11 -61 -17 -49 -22 -55 -53 -62 -67 -13 -147
20 -174 72 -34 65 -7 162 53 195 38 20 111 19 151 -3z m-1070 -128 c14 -18 19
-34 15 -50 -5 -21 -3 -24 20 -24 31 0 66 -35 66 -67 0 -30 -41 -73 -113 -118
l-57 -36 -53 83 c-29 46 -63 99 -75 118 l-21 35 67 42 c80 51 121 56 151 17z
m1379 -26 c34 -21 71 -84 72 -122 0 -11 -9 -39 -21 -62 -41 -86 -146 -106
-222 -43 -72 59 -72 156 -2 218 30 26 44 31 87 31 34 0 62 -7 86 -22z m-602
-159 c172 -26 372 -129 503 -257 118 -116 208 -265 258 -429 25 -82 27 -101
27 -268 0 -167 -2 -186 -27 -268 -84 -272 -262 -484 -507 -604 -367 -179 -807
-111 -1099 171 -131 127 -222 281 -269 455 -21 82 -25 118 -26 241 0 174 21
274 88 416 55 115 91 168 178 260 223 235 535 336 874 283z m702 -1695 c2 -16
-4 -23 -23 -28 -34 -9 -66 -42 -59 -61 8 -21 23 -19 87 10 42 19 60 23 79 16
60 -23 71 -91 23 -142 -30 -32 -81 -59 -110 -59 -10 0 -15 10 -15 30 0 25 4
30 24 30 33 0 81 42 73 63 -8 22 -29 21 -77 -3 -55 -28 -94 -26 -119 6 -38 49
-22 105 43 145 39 24 70 21 74 -7z m-1656 -41 c61 -57 73 -84 58 -129 -23 -69
-101 -85 -166 -33 l-38 30 -28 -33 -27 -33 -22 22 -22 22 87 100 c49 56 92
101 97 101 6 0 33 -21 61 -47z m170 -127 c16 -12 11 -22 -54 -127 -39 -63 -72
-115 -73 -117 -2 -2 -15 4 -28 13 l-25 16 71 114 c40 63 77 115 82 114 6 0 18
-6 27 -13z m1353 -67 c63 -45 115 -84 115 -88 0 -3 -10 -12 -21 -20 -19 -11
-25 -10 -49 7 l-27 20 -52 -30 c-50 -29 -52 -32 -47 -64 5 -26 2 -35 -16 -48
-12 -9 -24 -13 -26 -11 -3 3 -15 69 -27 147 -21 130 -22 144 -7 156 9 6 22 12
29 12 8 0 65 -36 128 -81z m-1269 15 c18 -5 27 -24 50 -111 31 -118 25 -118
74 0 19 47 32 55 60 38 12 -8 6 -30 -35 -133 -26 -68 -50 -125 -51 -127 -2 -2
-15 1 -28 6 -19 9 -28 30 -51 113 -15 56 -31 98 -35 93 -4 -4 -17 -35 -30 -68
-29 -76 -34 -81 -64 -67 l-24 11 51 125 c28 69 54 126 57 126 3 0 15 -3 26 -6z
m1021 -66 c29 -33 35 -67 16 -105 -8 -19 -14 -35 -12 -37 2 -1 21 -15 41 -30
41 -31 42 -40 2 -50 -19 -5 -34 0 -64 24 -39 31 -56 36 -78 22 -10 -7 -9 -17
2 -49 l15 -42 -29 -9 -28 -10 -46 131 c-25 72 -45 131 -43 132 1 1 29 12 62
23 83 28 136 28 162 0z m-653 -40 c50 -6 95 -15 99 -19 5 -4 6 -17 2 -29 -6
-19 -12 -21 -46 -15 -44 8 -41 15 -60 -127 -9 -71 -14 -88 -28 -88 -44 1 -45
10 -16 196 5 30 4 32 -35 38 -34 5 -40 10 -40 31 0 29 0 29 124 13z m381 -104
c7 -96 6 -108 -12 -132 -44 -60 -132 -71 -183 -24 -26 22 -33 38 -40 92 -5 36
-10 84 -10 108 0 40 1 42 30 42 29 0 30 -2 31 -47 0 -67 14 -142 27 -155 18
-18 73 -13 89 8 12 15 13 39 8 117 l-7 97 30 0 30 0 7 -106z"/>
<path d="M2076 3084 c-9 -20 -16 -38 -14 -39 8 -6 68 -14 68 -8 0 16 -24 83
-30 83 -3 0 -14 -16 -24 -36z"/>
<path d="M1623 3087 c-36 -13 -37 -15 -28 -57 7 -34 20 -36 70 -16 27 12 35
21 35 40 0 21 -26 49 -42 45 -2 0 -18 -6 -35 -12z"/>
<path d="M1308 2942 c-33 -20 -34 -23 -10 -51 l17 -22 37 31 c59 49 22 84 -44
42z"/>
<path d="M1377 2855 c-41 -28 -42 -32 -23 -57 17 -23 19 -23 61 5 40 26 50 44
34 63 -16 20 -29 18 -72 -11z"/>
<path d="M2664 2906 c-43 -43 -44 -77 -5 -117 49 -49 119 -31 141 36 14 42 -5
85 -45 103 -40 18 -54 15 -91 -22z"/>
<path d="M2269 2382 c-101 -53 -249 -143 -249 -151 0 -5 12 -29 26 -55 25 -44
28 -46 48 -33 96 62 237 137 258 137 29 0 58 -28 58 -56 0 -29 -42 -64 -155
-129 -55 -31 -104 -60 -109 -65 -10 -10 160 -310 176 -310 5 0 74 38 152 84
216 128 259 192 205 304 -27 54 -70 82 -128 82 -37 0 -42 2 -36 18 17 41 16
88 -3 122 -46 84 -143 105 -243 52z m273 -309 c20 -18 23 -45 8 -73 -9 -17
-157 -110 -176 -110 -10 0 -68 99 -62 106 3 2 40 24 84 49 84 48 117 55 146
28z"/>
<path d="M1925 2178 c-50 -26 -58 -74 -24 -148 11 -25 21 -60 22 -77 2 -65
-77 -115 -253 -161 -250 -65 -320 -114 -322 -221 -1 -74 51 -121 135 -121 77
0 128 33 289 187 97 94 159 132 212 133 23 0 43 -14 96 -70 37 -38 75 -70 84
-70 23 0 76 28 76 40 0 10 -275 499 -288 512 -4 4 -16 2 -27 -4z m-391 -564
c9 -8 16 -22 16 -29 0 -7 -7 -21 -16 -29 -30 -30 -74 -13 -74 29 0 42 44 59
74 29z"/>
<path d="M1160 1016 c-27 -30 -22 -49 19 -71 29 -14 32 -14 51 5 26 26 25 36
-6 65 -33 31 -35 31 -64 1z"/>
<path d="M2660 858 c0 -13 3 -33 6 -45 l6 -23 30 21 30 22 -29 23 c-35 29 -43
30 -43 2z"/>
<path d="M2405 788 c-16 -6 -32 -12 -33 -14 -7 -5 19 -74 27 -74 24 0 73 25
81 40 13 24 13 26 -6 44 -18 18 -27 19 -69 4z"/>
</g>
</svg>
